ABC After School Specials:
Its a mile from here to glory

IMDB: 
http://www.imdb.com/title/tt0385788/

MEDIA: TVRip ? possible VHS

Images: 
http://bayimg.com/CaAJbAAEE

Description:
A high school track star is involved in a life threatening accident, and now must learn to depend on others for his day to day living. 


MediaInfo:

Format                                   : AVI
Format/Info                              : Audio Video Interleave
File size                                : 700 MiB
Duration                                 : 45mn 31s
Overall bit rate                         : 2 149 Kbps
Writing application                      : VirtualDubMod 1.5.4.1 (build 2178/release)
Writing library                          : VirtualDubMod build 2178/release

Video
ID                                       : 0
Format                                   : MPEG-4 Visual
Format settings, BVOP                    : 1
Format settings, QPel                    : No
Format settings, GMC                     : No warppoints
Format settings, Matrix                  : Default (H.263)
Muxing mode                              : Packed bitstream
Codec ID                                 : DX50
Codec ID/Hint                            : DivX 5
Duration                                 : 45mn 31s
Bit rate                                 : 1 980 Kbps
Width                                    : 640 pixels
Height                                   : 480 pixels
Display aspect ratio                     : 4:3
Frame rate                               : 29.970 fps
Color space                              : YUV
Chroma subsampling                       : 4:2:0
Bit depth                                : 8 bits
Scan type                                : Progressive
Compression mode                         : Lossy
Bits/(Pixel*Frame)                       : 0.215
Stream size                              : 645 MiB (92%)
Writing library                          : DivX 5.2.1 (WaffleDay) (UTC 2004-09-08)

Audio
ID                                       : 1
Format                                   : MPEG Audio
Format version                           : Version 1
Format profile                           : Layer 3
Mode                                     : Joint stereo
Mode extension                           : MS Stereo
Codec ID                                 : 55
Codec ID/Hint                            : MP3
Duration                                 : 45mn 31s
Bit rate mode                            : Constant
Bit rate                                 : 160 Kbps
Channel(s)                               : 2 channels
Sampling rate                            : 48.0 KHz
Compression mode                         : Lossy
Stream size                              : 52.1 MiB (7%)
Alignment                                : Aligned on interleaves
Interleave, duration                     : 67 ms (2.00 video frames)
Interleave, preload duration             : 504 ms
Writing library                          : LAME3.96r
